# Pieza del taladro — metros, ejes MuJoCo (generado por preparar_taladro.py)
v 0.100776 -0.000500 0.000037
v 0.100776 0.000208 -0.000461
v 0.100776 -0.000159 0.000532
v 0.100776 0.000560 0.000050
v 0.099029 0.000247 0.000757
v 0.099029 0.000808 0.000097
v 0.098031 0.000619 0.000501
v 0.098031 0.000731 -0.000357
v 0.097032 0.000792 0.000084
v 0.097032 0.000421 -0.000698
v 0.096033 0.000711 -0.000359
v 0.096033 -0.000025 -0.000815
v 0.095034 0.000403 -0.000688
v 0.095034 -0.000463 -0.000671
v 0.094036 -0.000035 -0.000797
v 0.094036 -0.000753 -0.000313
v 0.093037 -0.000462 -0.000651
v 0.093037 -0.000802 0.000145
v 0.092038 -0.000741 -0.000297
v 0.092038 -0.000595 0.000556
v 0.091039 -0.000783 0.000152
v 0.091039 -0.000197 0.000789
v 0.090041 -0.000575 0.000552
v 0.090041 0.000263 0.000769
v 0.089042 -0.000182 0.000775
v 0.089042 0.000639 0.000503
v 0.088043 0.000268 0.000749
v 0.088043 0.000810 0.000075
v 0.087044 0.000632 0.000484
v 0.087044 0.000721 -0.000377
v 0.086046 0.000794 0.000063
v 0.086046 0.000402 -0.000709
v 0.085047 0.000701 -0.000379
v 0.085047 -0.000047 -0.000814
v 0.084048 0.000384 -0.000699
v 0.084048 -0.000481 -0.000659
v 0.083049 -0.000057 -0.000796
v 0.083049 -0.000761 -0.000293
v 0.082051 -0.000479 -0.000638
v 0.082051 -0.000798 0.000167
v 0.081052 -0.000749 -0.000276
v 0.081052 -0.000579 0.000572
v 0.080053 -0.000778 0.000174
v 0.080053 -0.000175 0.000794
v 0.079054 -0.000559 0.000568
v 0.079054 0.000284 0.000762
v 0.078056 -0.000161 0.000780
v 0.078056 0.000653 0.000485
v 0.077057 0.000288 0.000742
v 0.077057 0.000812 0.000053
v 0.076058 0.000645 0.000466
v 0.076058 0.000711 -0.000397
v 0.075059 0.000795 0.000041
v 0.075059 0.000382 -0.000720
v 0.074061 0.000690 -0.000398
v 0.074061 -0.000069 -0.000812
v 0.073062 0.000364 -0.000709
v 0.073062 -0.000499 -0.000645
v 0.072063 -0.000079 -0.000794
v 0.072063 -0.000769 -0.000272
v 0.071064 -0.000497 -0.000625
v 0.071064 -0.000793 0.000188
v 0.070066 -0.000756 -0.000256
v 0.070066 -0.000563 0.000588
v 0.069067 -0.000773 0.000195
v 0.069067 -0.000154 0.000799
v 0.068068 -0.000543 0.000583
v 0.068068 0.000305 0.000754
v 0.067069 -0.000140 0.000784
v 0.067069 0.000666 0.000467
v 0.066071 0.000308 0.000734
v 0.066071 0.000813 0.000031
v 0.065072 0.000658 0.000448
v 0.065072 0.000700 -0.000416
v 0.064073 0.000796 0.000019
v 0.064073 0.000362 -0.000730
v 0.063074 0.000679 -0.000417
v 0.063074 -0.000091 -0.000810
v 0.062076 0.000345 -0.000719
v 0.062076 -0.000516 -0.000631
v 0.061077 -0.000100 -0.000792
v 0.061077 -0.000776 -0.000251
v 0.060078 -0.000513 -0.000611
v 0.060078 -0.000787 0.000210
v 0.059079 -0.000763 -0.000235
v 0.059079 -0.000547 0.000603
v 0.058081 -0.000768 0.000216
v 0.058081 -0.000132 0.000803
v 0.057082 -0.000527 0.000597
v 0.057082 0.000325 0.000745
v 0.056083 -0.000118 0.000787
v 0.056083 0.000678 0.000449
v 0.055084 0.000328 0.000725
v 0.055084 0.000814 0.000008
v 0.054086 0.000670 0.000430
v 0.054086 0.000688 -0.000435
v 0.053093 0.001263 -0.000004
v 0.053094 0.001136 -0.000552
v 0.052091 0.001212 -0.000362
v 0.052091 0.000935 -0.000852
v 0.051089 0.001212 -0.000362
v 0.051089 0.000936 -0.000852
v 0.036307 0.001206 -0.000360
v 0.036299 0.000931 -0.000848
v 0.036295 -0.000932 0.000846
v 0.036287 -0.001207 0.000358
v 0.051090 -0.000937 0.000851
v 0.051090 -0.001213 0.000360
v 0.052084 -0.000936 0.000851
v 0.052085 -0.001213 0.000360
v 0.053077 -0.001138 0.000551
v 0.053078 -0.001264 0.000003
v 0.054086 -0.000669 0.000433
v 0.054086 -0.000692 -0.000432
v 0.055084 -0.000798 0.000001
v 0.055084 -0.000347 -0.000738
v 0.056083 -0.000671 -0.000432
v 0.056083 0.000108 -0.000808
v 0.057082 -0.000330 -0.000727
v 0.057082 0.000529 -0.000619
v 0.058081 0.000117 -0.000789
v 0.058081 0.000780 -0.000233
v 0.059079 0.000526 -0.000599
v 0.059079 0.000781 0.000228
v 0.060078 0.000766 -0.000218
v 0.060078 0.000532 0.000615
v 0.061077 0.000761 0.000233
v 0.061077 0.000112 0.000806
v 0.062076 0.000512 0.000609
v 0.062076 -0.000344 0.000738
v 0.063074 0.000099 0.000790
v 0.063074 -0.000690 0.000433
v 0.064073 -0.000346 0.000717
v 0.064073 -0.000815 -0.000010
v 0.065072 -0.000681 0.000415
v 0.065072 -0.000680 -0.000451
v 0.066071 -0.000797 -0.000021
v 0.066071 -0.000327 -0.000747
v 0.067069 -0.000659 -0.000450
v 0.067069 0.000130 -0.000805
v 0.068068 -0.000310 -0.000736
v 0.068068 0.000546 -0.000605
v 0.069067 0.000138 -0.000786
v 0.069067 0.000786 -0.000212
v 0.070066 0.000542 -0.000585
v 0.070066 0.000774 0.000249
v 0.071064 0.000772 -0.000197
v 0.071064 0.000515 0.000630
v 0.072063 0.000754 0.000254
v 0.072063 0.000090 0.000808
v 0.073062 0.000495 0.000623
v 0.073062 -0.000364 0.000728
v 0.074061 0.000077 0.000792
v 0.074061 -0.000701 0.000414
v 0.075059 -0.000366 0.000708
v 0.075059 -0.000814 -0.000033
v 0.076058 -0.000692 0.000396
v 0.076058 -0.000667 -0.000469
v 0.077057 -0.000797 -0.000043
v 0.077057 -0.000306 -0.000756
v 0.078056 -0.000647 -0.000468
v 0.078056 0.000152 -0.000801
v 0.079054 -0.000290 -0.000744
v 0.079054 0.000562 -0.000590
v 0.080053 0.000160 -0.000782
v 0.080053 0.000791 -0.000190
v 0.081052 0.000558 -0.000570
v 0.081052 0.000767 0.000270
v 0.082051 0.000777 -0.000176
v 0.082051 0.000497 0.000643
v 0.083049 0.000747 0.000274
v 0.083049 0.000068 0.000810
v 0.084048 0.000478 0.000636
v 0.084048 -0.000384 0.000718
v 0.085047 0.000055 0.000794
v 0.085047 -0.000712 0.000395
v 0.086046 -0.000385 0.000697
v 0.086046 -0.000813 -0.000055
v 0.087044 -0.000702 0.000377
v 0.087044 -0.000654 -0.000487
v 0.088043 -0.000795 -0.000064
v 0.088043 -0.000286 -0.000764
v 0.089042 -0.000634 -0.000485
v 0.089042 0.000174 -0.000796
v 0.090041 -0.000269 -0.000751
v 0.090041 0.000578 -0.000574
v 0.091039 0.000181 -0.000777
v 0.091039 0.000796 -0.000168
v 0.092038 0.000573 -0.000554
v 0.092038 0.000759 0.000291
v 0.093037 0.000781 -0.000154
v 0.093037 0.000479 0.000657
v 0.094036 0.000739 0.000295
v 0.094036 0.000045 0.000812
v 0.095034 0.000460 0.000649
v 0.095034 -0.000403 0.000707
v 0.096033 0.000034 0.000795
v 0.096033 -0.000723 0.000375
v 0.097032 -0.000404 0.000687
v 0.097032 -0.000811 -0.000077
v 0.098031 -0.000713 0.000358
v 0.098031 -0.000640 -0.000505
v 0.099029 -0.000793 -0.000086
v 0.099029 -0.000265 -0.000771
v 0.100028 -0.000894 0.000990
v 0.100040 -0.000859 0.001002
v 0.099029 -0.000293 0.001392
v 0.099029 -0.000338 0.001396
v 0.098031 0.000510 0.001327
v 0.098031 0.000474 0.001355
v 0.097032 0.001149 0.000837
v 0.097032 0.001134 0.000881
v 0.096033 0.001420 0.000079
v 0.096033 0.001431 0.000124
v 0.095034 0.001236 -0.000705
v 0.095034 0.001269 -0.000673
v 0.094036 0.000656 -0.001263
v 0.094036 0.000701 -0.001255
v 0.093037 -0.000134 -0.001417
v 0.093037 -0.000092 -0.001435
v 0.092038 -0.000882 -0.001118
v 0.092038 -0.000855 -0.001156
v 0.091039 -0.001347 -0.000461
v 0.091039 -0.001345 -0.000507
v 0.090041 -0.001381 0.000343
v 0.090041 -0.001405 0.000304
v 0.089042 -0.000973 0.001037
v 0.089042 -0.001015 0.001017
v 0.088043 -0.000254 0.001399
v 0.088043 -0.000300 0.001404
v 0.087044 0.000546 0.001312
v 0.087044 0.000511 0.001342
v 0.086046 0.001171 0.000805
v 0.086046 0.001157 0.000849
v 0.085047 0.001421 0.000040
v 0.085047 0.001434 0.000085
v 0.084048 0.001216 -0.000738
v 0.084048 0.001250 -0.000707
v 0.083049 0.000621 -0.001280
v 0.083049 0.000667 -0.001273
v 0.082051 -0.000173 -0.001413
v 0.082051 -0.000131 -0.001432
v 0.081052 -0.000912 -0.001093
v 0.081052 -0.000887 -0.001132
v 0.080053 -0.001359 -0.000424
v 0.080053 -0.001359 -0.000470
v 0.079054 -0.001371 0.000381
v 0.079054 -0.001396 0.000342
v 0.078056 -0.000945 0.001063
v 0.078056 -0.000987 0.001044
v 0.077057 -0.000216 0.001405
v 0.077057 -0.000262 0.001412
v 0.076058 0.000582 0.001297
v 0.076058 0.000547 0.001327
v 0.075059 0.001193 0.000773
v 0.075059 0.001180 0.000817
v 0.074061 0.001422 0.000001
v 0.074061 0.001435 0.000045
v 0.073062 0.001195 -0.000771
v 0.073062 0.001231 -0.000741
v 0.072063 0.000586 -0.001297
v 0.072063 0.000632 -0.001291
v 0.071064 -0.000212 -0.001408
v 0.071064 -0.000170 -0.001428
v 0.070066 -0.000941 -0.001068
v 0.070066 -0.000917 -0.001108
v 0.069067 -0.001370 -0.000387
v 0.069067 -0.001371 -0.000433
v 0.068068 -0.001360 0.000418
v 0.068068 -0.001386 0.000380
v 0.067069 -0.000915 0.001089
v 0.067069 -0.000958 0.001071
v 0.066071 -0.000177 0.001411
v 0.066071 -0.000223 0.001419
v 0.065072 0.000617 0.001280
v 0.065072 0.000583 0.001312
v 0.064073 0.001214 0.000740
v 0.064073 0.001202 0.000785
v 0.063074 0.001421 -0.000038
v 0.063074 0.001436 0.000006
v 0.062076 0.001174 -0.000804
v 0.062076 0.001210 -0.000775
v 0.061077 0.000550 -0.001313
v 0.061077 0.000596 -0.001308
v 0.060078 -0.000250 -0.001402
v 0.060078 -0.000209 -0.001423
v 0.059079 -0.000970 -0.001042
v 0.059079 -0.000947 -0.001082
v 0.058081 -0.001380 -0.000349
v 0.058081 -0.001382 -0.000395
v 0.057082 -0.001348 0.000455
v 0.057082 -0.001375 0.000418
v 0.056083 -0.000885 0.001113
v 0.056083 -0.000928 0.001097
v 0.055084 -0.000139 0.001415
v 0.055084 -0.000184 0.001424
v 0.054086 0.000652 0.001263
v 0.054086 0.000619 0.001295
v 0.053091 0.001139 0.000545
v 0.053087 0.000790 0.000985
v 0.052090 0.001248 0.000200
v 0.052088 0.001038 0.000722
v 0.051089 0.001249 0.000200
v 0.051089 0.001038 0.000722
v 0.036316 0.001032 0.000719
v 0.036313 0.001242 0.000199
v 0.036311 0.000081 0.001255
v 0.036304 -0.000472 0.001166
v 0.051090 -0.000474 0.001173
v 0.051090 0.000082 0.001262
v 0.052084 -0.000474 0.001172
v 0.052085 0.000082 0.001262
v 0.053078 -0.000786 0.000990
v 0.053080 -0.000278 0.001232
v 0.054086 -0.000647 0.001266
v 0.054086 -0.000614 0.001298
v 0.055084 -0.001232 0.000712
v 0.055084 -0.001221 0.000757
v 0.056083 -0.001422 -0.000070
v 0.056083 -0.001437 -0.000026
v 0.057082 -0.001157 -0.000830
v 0.057082 -0.001193 -0.000802
v 0.058081 -0.000522 -0.001325
v 0.058081 -0.000568 -0.001321
v 0.059079 0.000280 -0.001395
v 0.059079 0.000240 -0.001418
v 0.060078 0.000992 -0.001020
v 0.060078 0.000970 -0.001060
v 0.061077 0.001386 -0.000318
v 0.061077 0.001390 -0.000364
v 0.062076 0.001336 0.000486
v 0.062076 0.001364 0.000449
v 0.063074 0.000858 0.001133
v 0.063074 0.000901 0.001117
v 0.064073 0.000105 0.001418
v 0.064073 0.000150 0.001428
v 0.065072 -0.000682 0.001248
v 0.065072 -0.000650 0.001281
v 0.066071 -0.001251 0.000678
v 0.066071 -0.001241 0.000724
v 0.067069 -0.001419 -0.000109
v 0.067069 -0.001436 -0.000066
v 0.068068 -0.001134 -0.000861
v 0.068068 -0.001171 -0.000834
v 0.069067 -0.000485 -0.001338
v 0.069067 -0.000531 -0.001336
v 0.070066 0.000318 -0.001387
v 0.070066 0.000278 -0.001410
v 0.071064 0.001020 -0.000992
v 0.071064 0.000999 -0.001033
v 0.072063 0.001394 -0.000280
v 0.072063 0.001399 -0.000326
v 0.073062 0.001322 0.000522
v 0.073062 0.001351 0.000486
v 0.074061 0.000827 0.001156
v 0.074061 0.000870 0.001142
v 0.075059 0.000066 0.001420
v 0.075059 0.000111 0.001432
v 0.076058 -0.000716 0.001229
v 0.076058 -0.000684 0.001263
v 0.077057 -0.001269 0.000644
v 0.077057 -0.001261 0.000689
v 0.078056 -0.001416 -0.000148
v 0.078056 -0.001434 -0.000105
v 0.079054 -0.001110 -0.000892
v 0.079054 -0.001148 -0.000866
v 0.080053 -0.000448 -0.001351
v 0.080053 -0.000495 -0.001350
v 0.081052 0.000356 -0.001378
v 0.081052 0.000317 -0.001402
v 0.082051 0.001046 -0.000964
v 0.082051 0.001026 -0.001006
v 0.083049 0.001401 -0.000242
v 0.083049 0.001407 -0.000287
v 0.084048 0.001307 0.000558
v 0.084048 0.001337 0.000523
v 0.085047 0.000795 0.001178
v 0.085047 0.000839 0.001165
v 0.086046 0.000027 0.001421
v 0.086046 0.000072 0.001434
v 0.087044 -0.000749 0.001209
v 0.087044 -0.000719 0.001244
v 0.088043 -0.001286 0.000609
v 0.088043 -0.001279 0.000655
v 0.089042 -0.001411 -0.000186
v 0.089042 -0.001430 -0.000144
v 0.090041 -0.001085 -0.000922
v 0.090041 -0.001124 -0.000897
v 0.091039 -0.000411 -0.001363
v 0.091039 -0.000458 -0.001363
v 0.092038 0.000394 -0.001368
v 0.092038 0.000355 -0.001393
v 0.093037 0.001072 -0.000935
v 0.093037 0.001053 -0.000977
v 0.094036 0.001407 -0.000203
v 0.094036 0.001415 -0.000249
v 0.095034 0.001292 0.000594
v 0.095034 0.001322 0.000559
v 0.096033 0.000762 0.001200
v 0.096033 0.000807 0.001188
v 0.097032 -0.000012 0.001422
v 0.097032 0.000032 0.001436
v 0.098031 -0.000782 0.001188
v 0.098031 -0.000752 0.001224
v 0.099029 -0.001305 0.000577
v 0.099029 -0.001299 0.000617
v 0.100044 -0.001185 0.000517
v 0.100028 -0.001193 0.000555
v 0.100047 0.001249 -0.000412
v 0.100028 0.001260 -0.000458
v 0.099029 0.001346 -0.000536
v 0.099029 0.001341 -0.000584
v 0.098031 0.000839 -0.001177
v 0.098031 0.000805 -0.001220
v 0.097032 0.000067 -0.001444
v 0.097032 0.000015 -0.001462
v 0.096033 -0.000728 -0.001250
v 0.096033 -0.000781 -0.001237
v 0.095034 -0.001289 -0.000655
v 0.095034 -0.001326 -0.000616
v 0.094036 -0.001438 0.000149
v 0.094036 -0.001448 0.000202
v 0.093037 -0.001127 0.000905
v 0.093037 -0.001106 0.000955
v 0.092038 -0.000455 0.001371
v 0.092038 -0.000410 0.001402
v 0.091039 0.000362 0.001398
v 0.091039 0.000417 0.001399
v 0.090041 0.001063 0.000977
v 0.090041 0.001110 0.000949
v 0.089042 0.001424 0.000243
v 0.089042 0.001447 0.000194
v 0.088043 0.001328 -0.000569
v 0.088043 0.001321 -0.000623
v 0.087044 0.000807 -0.001199
v 0.087044 0.000772 -0.001241
v 0.086046 0.000027 -0.001446
v 0.086046 -0.000025 -0.001462
v 0.085047 -0.000761 -0.001229
v 0.085047 -0.000814 -0.001215
v 0.084048 -0.001306 -0.000620
v 0.084048 -0.001343 -0.000579
v 0.083049 -0.001433 0.000188
v 0.083049 -0.001442 0.000242
v 0.082051 -0.001102 0.000935
v 0.082051 -0.001079 0.000985
v 0.081052 -0.000417 0.001383
v 0.081052 -0.000372 0.001412
v 0.080053 0.000400 0.001387
v 0.080053 0.000455 0.001387
v 0.079054 0.001090 0.000947
v 0.079054 0.001135 0.000918
v 0.078056 0.001430 0.000204
v 0.078056 0.001452 0.000154
v 0.077057 0.001312 -0.000605
v 0.077057 0.001304 -0.000659
v 0.076058 0.000774 -0.001221
v 0.076058 0.000738 -0.001262
v 0.075059 -0.000012 -0.001446
v 0.075059 -0.000065 -0.001461
v 0.074061 -0.000795 -0.001208
v 0.074061 -0.000847 -0.001192
v 0.073062 -0.001323 -0.000584
v 0.073062 -0.001358 -0.000542
v 0.072063 -0.001428 0.000227
v 0.072063 -0.001434 0.000281
v 0.071064 -0.001076 0.000965
v 0.071064 -0.001052 0.001014
v 0.070066 -0.000379 0.001394
v 0.070066 -0.000333 0.001422
v 0.069067 0.000438 0.001376
v 0.069067 0.000493 0.001374
v 0.068068 0.001115 0.000917
v 0.068068 0.001160 0.000886
v 0.067069 0.001435 0.000165
v 0.067069 0.001456 0.000114
v 0.066071 0.001295 -0.000641
v 0.066071 0.001285 -0.000695
v 0.065072 0.000740 -0.001242
v 0.065072 0.000703 -0.001282
v 0.064073 -0.000052 -0.001445
v 0.064073 -0.000105 -0.001458
v 0.063074 -0.000827 -0.001186
v 0.063074 -0.000879 -0.001169
v 0.062076 -0.001338 -0.000548
v 0.062076 -0.001372 -0.000505
v 0.061077 -0.001421 0.000266
v 0.061077 -0.001426 0.000320
v 0.060078 -0.001049 0.000994
v 0.060078 -0.001024 0.001042
v 0.059079 -0.000341 0.001403
v 0.059079 -0.000294 0.001431
v 0.058081 0.000476 0.001363
v 0.058081 0.000530 0.001360
v 0.057082 0.001140 0.000886
v 0.057082 0.001184 0.000854
v 0.056083 0.001439 0.000125
v 0.056083 0.001458 0.000074
v 0.055084 0.001277 -0.000676
v 0.055084 0.001266 -0.000730
v 0.054086 0.000706 -0.001261
v 0.054086 0.000668 -0.001300
v 0.053093 0.000785 -0.000991
v 0.053091 0.000277 -0.001233
v 0.052091 0.000473 -0.001174
v 0.052090 -0.000083 -0.001263
v 0.051089 0.000473 -0.001174
v 0.051089 -0.000083 -0.001264
v 0.036284 -0.000082 -0.001257
v 0.036291 0.000471 -0.001168
v 0.036281 -0.001243 -0.000201
v 0.036278 -0.001033 -0.000720
v 0.051090 -0.001250 -0.000202
v 0.051090 -0.001039 -0.000724
v 0.052086 -0.001249 -0.000201
v 0.052087 -0.001039 -0.000723
v 0.053081 -0.001141 -0.000546
v 0.053084 -0.000791 -0.000986
v 0.054086 -0.000713 -0.001258
v 0.054086 -0.000675 -0.001297
v 0.055084 0.000083 -0.001443
v 0.055084 0.000136 -0.001456
v 0.056083 0.000853 -0.001167
v 0.056083 0.000904 -0.001148
v 0.057082 0.001349 -0.000517
v 0.057082 0.001382 -0.000474
v 0.058081 0.001413 0.000298
v 0.058081 0.001417 0.000352
v 0.059079 0.001024 0.001017
v 0.059079 0.000998 0.001065
v 0.060078 0.000308 0.001411
v 0.060078 0.000260 0.001437
v 0.061077 -0.000508 0.001352
v 0.061077 -0.000562 0.001348
v 0.062076 -0.001161 0.000860
v 0.062076 -0.001205 0.000827
v 0.063074 -0.001443 0.000093
v 0.063074 -0.001461 0.000041
v 0.064073 -0.001263 -0.000705
v 0.064073 -0.001250 -0.000758
v 0.065072 -0.000678 -0.001277
v 0.065072 -0.000639 -0.001315
v 0.066071 0.000123 -0.001441
v 0.066071 0.000176 -0.001451
v 0.067069 0.000884 -0.001143
v 0.067069 0.000935 -0.001123
v 0.068068 0.001363 -0.000480
v 0.068068 0.001394 -0.000436
v 0.069067 0.001404 0.000337
v 0.069067 0.001407 0.000391
v 0.070066 0.000996 0.001045
v 0.070066 0.000969 0.001092
v 0.071064 0.000269 0.001419
v 0.071064 0.000220 0.001443
v 0.072063 -0.000545 0.001338
v 0.072063 -0.000599 0.001332
v 0.073062 -0.001184 0.000828
v 0.073062 -0.001227 0.000794
v 0.074061 -0.001445 0.000053
v 0.074061 -0.001462 0.000001
v 0.075059 -0.001243 -0.000739
v 0.075059 -0.001229 -0.000792
v 0.076058 -0.000643 -0.001295
v 0.076058 -0.000603 -0.001332
v 0.077057 0.000162 -0.001437
v 0.077057 0.000216 -0.001446
v 0.078056 0.000915 -0.001119
v 0.078056 0.000965 -0.001097
v 0.079054 0.001375 -0.000442
v 0.079054 0.001406 -0.000397
v 0.080053 0.001395 0.000375
v 0.080053 0.001396 0.000429
v 0.081052 0.000967 0.001072
v 0.081052 0.000938 0.001118
v 0.082051 0.000230 0.001426
v 0.082051 0.000181 0.001449
v 0.083049 -0.000581 0.001322
v 0.083049 -0.000635 0.001315
v 0.084048 -0.001206 0.000795
v 0.084048 -0.001248 0.000760
v 0.085047 -0.001446 0.000014
v 0.085047 -0.001461 -0.000039
v 0.086046 -0.001222 -0.000773
v 0.086046 -0.001207 -0.000825
v 0.087044 -0.000608 -0.001312
v 0.087044 -0.000566 -0.001348
v 0.088043 0.000201 -0.001432
v 0.088043 0.000255 -0.001439
v 0.089042 0.000945 -0.001093
v 0.089042 0.000995 -0.001070
v 0.090041 0.001387 -0.000405
v 0.090041 0.001416 -0.000359
v 0.091039 0.001384 0.000413
v 0.091039 0.001383 0.000467
v 0.092038 0.000937 0.001098
v 0.092038 0.000908 0.001144
v 0.093037 0.000191 0.001431
v 0.093037 0.000141 0.001453
v 0.094036 -0.000617 0.001306
v 0.094036 -0.000671 0.001297
v 0.095034 -0.001228 0.000762
v 0.095034 -0.001268 0.000726
v 0.096033 -0.001445 -0.000026
v 0.096033 -0.001460 -0.000079
v 0.097032 -0.001201 -0.000806
v 0.097032 -0.001184 -0.000858
v 0.098031 -0.000572 -0.001328
v 0.098031 -0.000529 -0.001363
v 0.099029 0.000241 -0.001426
v 0.099029 0.000294 -0.001433
v 0.100028 0.000937 -0.000928
v 0.100042 0.000895 -0.000943
v 0.036279 -0.000619 -0.001097
v 0.051090 -0.000622 -0.001103
v 0.052089 -0.000622 -0.001102
v 0.053088 -0.000285 -0.001232
v 0.054086 -0.000004 -0.001467
v 0.055084 0.000792 -0.001234
v 0.056083 0.001334 -0.000606
v 0.057082 0.001449 0.000215
v 0.058081 0.001100 0.000968
v 0.059079 0.000398 0.001410
v 0.060078 -0.000431 0.001400
v 0.061077 -0.001123 0.000942
v 0.062076 -0.001455 0.000182
v 0.063074 -0.001322 -0.000637
v 0.064073 -0.000765 -0.001252
v 0.065072 0.000036 -0.001467
v 0.066071 0.000826 -0.001212
v 0.067069 0.001350 -0.000570
v 0.068068 0.001443 0.000255
v 0.069067 0.001073 0.000997
v 0.070066 0.000359 0.001420
v 0.071064 -0.000470 0.001388
v 0.072063 -0.001148 0.000911
v 0.073062 -0.001460 0.000142
v 0.074061 -0.001304 -0.000672
v 0.075059 -0.000731 -0.001272
v 0.076058 0.000076 -0.001465
v 0.077057 0.000858 -0.001189
v 0.078056 0.001366 -0.000532
v 0.079054 0.001435 0.000294
v 0.080053 0.001045 0.001026
v 0.081052 0.000320 0.001429
v 0.082051 -0.000507 0.001375
v 0.083049 -0.001173 0.000880
v 0.084048 -0.001463 0.000102
v 0.085047 -0.001285 -0.000708
v 0.086046 -0.000696 -0.001292
v 0.087044 0.000116 -0.001462
v 0.088043 0.000890 -0.001165
v 0.089042 0.001380 -0.000495
v 0.090041 0.001427 0.000333
v 0.091039 0.001017 0.001054
v 0.092038 0.000281 0.001438
v 0.093037 -0.000545 0.001360
v 0.094036 -0.001197 0.000847
v 0.095034 -0.001465 0.000062
v 0.096033 -0.001265 -0.000743
v 0.097032 -0.000660 -0.001310
v 0.098031 0.000156 -0.001459
v 0.099035 0.000910 -0.001149
v 0.100118 0.001201 -0.000793
v 0.036315 0.000618 0.001095
v 0.051089 0.000621 0.001101
v 0.052087 0.000621 0.001101
v 0.053083 0.000284 0.001231
v 0.054086 0.000003 0.001459
v 0.055084 -0.000790 0.001227
v 0.056083 -0.001330 0.000602
v 0.057082 -0.001445 -0.000216
v 0.058081 -0.001097 -0.000965
v 0.059079 -0.000398 -0.001406
v 0.060078 0.000428 -0.001397
v 0.061077 0.001117 -0.000940
v 0.062076 0.001448 -0.000183
v 0.063074 0.001315 0.000632
v 0.064073 0.000761 0.001245
v 0.065072 -0.000037 0.001459
v 0.066071 -0.000824 0.001205
v 0.067069 -0.001346 0.000565
v 0.068068 -0.001438 -0.000256
v 0.069067 -0.001070 -0.000995
v 0.070066 -0.000359 -0.001416
v 0.071064 0.000466 -0.001384
v 0.072063 0.001142 -0.000909
v 0.073062 0.001452 -0.000144
v 0.074061 0.001297 0.000668
v 0.075059 0.000726 0.001265
v 0.076058 -0.000077 0.001457
v 0.077057 -0.000856 0.001182
v 0.078056 -0.001361 0.000528
v 0.079054 -0.001431 -0.000295
v 0.080053 -0.001042 -0.001024
v 0.081052 -0.000320 -0.001426
v 0.082051 0.000504 -0.001371
v 0.083049 0.001167 -0.000878
v 0.084048 0.001456 -0.000104
v 0.085047 0.001278 0.000703
v 0.086046 0.000691 0.001285
v 0.087044 -0.000117 0.001454
v 0.088043 -0.000888 0.001158
v 0.089042 -0.001375 0.000491
v 0.090041 -0.001422 -0.000334
v 0.091039 -0.001014 -0.001052
v 0.092038 -0.000281 -0.001434
v 0.093037 0.000541 -0.001357
v 0.094036 0.001190 -0.000846
v 0.095034 0.001458 -0.000064
v 0.096033 0.001259 0.000738
v 0.097032 0.000656 0.001303
v 0.098031 -0.000157 0.001451
v 0.099034 -0.000907 0.001143
v 0.100113 -0.001143 0.000870
v 0.100776 -0.000329 0.000284
v 0.100776 0.000384 -0.000205
v 0.100184 0.001060 -0.000691
v 0.100192 -0.000977 0.000750
v 0.036304 0.000246 0.000365
v 0.036291 -0.000236 -0.000362
v 0.036304 0.000740 0.000045
v 0.036290 0.000258 -0.000695
v 0.036291 -0.000735 -0.000038
v 0.036304 -0.000239 0.000695
v 0.036966 0.001206 -0.000360
v 0.036958 0.000931 -0.000848
v 0.036950 0.000471 -0.001168
v 0.036943 -0.000082 -0.001257
v 0.036939 -0.000619 -0.001097
v 0.036938 -0.001034 -0.000720
v 0.036941 -0.001243 -0.000201
v 0.036947 -0.001207 0.000359
v 0.036954 -0.000932 0.000846
v 0.036962 -0.000472 0.001167
v 0.036969 0.000081 0.001256
v 0.036973 0.000618 0.001096
v 0.036974 0.001033 0.000719
v 0.036972 0.001243 0.000199
v 0.044028 0.001209 -0.000361
v 0.044024 0.000933 -0.000850
v 0.044020 0.000472 -0.001171
v 0.044016 -0.000082 -0.001260
v 0.044014 -0.000621 -0.001100
v 0.044014 -0.001036 -0.000722
v 0.044015 -0.001247 -0.000201
v 0.044018 -0.001210 0.000359
v 0.044022 -0.000934 0.000849
v 0.044026 -0.000473 0.001170
v 0.044029 0.000081 0.001259
v 0.044031 0.000620 0.001099
v 0.044032 0.001035 0.000721
v 0.044030 0.001246 0.000200
v 0.040485 0.000472 -0.001170
v 0.040491 0.000932 -0.000849
v 0.040497 0.001208 -0.000360
v 0.040501 0.001244 0.000199
v 0.040503 0.001034 0.000720
v 0.040502 0.000619 0.001097
v 0.040499 0.000081 0.001257
v 0.040494 -0.000473 0.001168
v 0.040488 -0.000933 0.000848
v 0.040482 -0.001209 0.000359
v 0.040478 -0.001245 -0.000201
v 0.040476 -0.001035 -0.000721
v 0.040477 -0.000620 -0.001099
v 0.040480 -0.000082 -0.001259
v 0.047558 0.001211 -0.000361
v 0.047557 0.000934 -0.000851
v 0.047555 0.000473 -0.001173
v 0.047553 -0.000083 -0.001262
v 0.047552 -0.000622 -0.001101
v 0.047552 -0.001038 -0.000723
v 0.047552 -0.001248 -0.000201
v 0.047554 -0.001212 0.000360
v 0.047556 -0.000935 0.000850
v 0.047558 -0.000474 0.001171
v 0.047559 0.000082 0.001260
v 0.047560 0.000621 0.001100
v 0.047561 0.001037 0.000721
v 0.047560 0.001247 0.000200
v 0.042262 0.001209 -0.000361
v 0.042257 0.000933 -0.000850
v 0.042252 0.000472 -0.001170
v 0.042248 -0.000082 -0.001259
v 0.042245 -0.000620 -0.001099
v 0.042245 -0.001036 -0.000722
v 0.042247 -0.001246 -0.000201
v 0.042250 -0.001209 0.000359
v 0.042255 -0.000934 0.000848
v 0.042260 -0.000473 0.001169
v 0.042264 0.000081 0.001258
v 0.042267 0.000619 0.001098
v 0.042267 0.001035 0.000720
v 0.042266 0.001245 0.000200
v 0.045787 0.000473 -0.001172
v 0.045790 0.000934 -0.000851
v 0.045793 0.001210 -0.000361
v 0.045795 0.001247 0.000200
v 0.045796 0.001036 0.000721
v 0.045796 0.000620 0.001099
v 0.045794 0.000081 0.001260
v 0.045792 -0.000473 0.001170
v 0.045789 -0.000935 0.000849
v 0.045786 -0.001211 0.000360
v 0.045784 -0.001247 -0.000201
v 0.045783 -0.001037 -0.000722
v 0.045783 -0.000621 -0.001101
v 0.045785 -0.000082 -0.001261
v 0.049324 0.001212 -0.000362
v 0.049323 0.000935 -0.000852
v 0.049322 0.000473 -0.001173
v 0.049321 -0.000083 -0.001263
v 0.049321 -0.000622 -0.001102
v 0.049321 -0.001038 -0.000723
v 0.049321 -0.001249 -0.000201
v 0.049322 -0.001213 0.000360
v 0.049323 -0.000936 0.000850
v 0.049324 -0.000474 0.001172
v 0.049324 0.000082 0.001261
v 0.049325 0.000621 0.001101
v 0.049325 0.001037 0.000722
v 0.049325 0.001248 0.000200
v 0.038718 0.000471 -0.001169
v 0.038725 0.000931 -0.000848
v 0.038731 0.001207 -0.000360
v 0.038736 0.001243 0.000199
v 0.038739 0.001033 0.000719
v 0.038738 0.000619 0.001096
v 0.038734 0.000081 0.001256
v 0.038728 -0.000472 0.001167
v 0.038721 -0.000932 0.000847
v 0.038715 -0.001208 0.000359
v 0.038710 -0.001244 -0.000201
v 0.038707 -0.001034 -0.000721
v 0.038708 -0.000620 -0.001098
v 0.038712 -0.000082 -0.001258
f 714 718 206
f 714 206 205
f 715 716 4
f 715 4 3
f 3 4 6
f 3 6 5
f 5 6 8
f 5 8 7
f 7 8 10
f 7 10 9
f 9 10 12
f 9 12 11
f 11 12 14
f 11 14 13
f 13 14 16
f 13 16 15
f 15 16 18
f 15 18 17
f 17 18 20
f 17 20 19
f 19 20 22
f 19 22 21
f 21 22 24
f 21 24 23
f 23 24 26
f 23 26 25
f 25 26 28
f 25 28 27
f 27 28 30
f 27 30 29
f 29 30 32
f 29 32 31
f 31 32 34
f 31 34 33
f 33 34 36
f 33 36 35
f 35 36 38
f 35 38 37
f 37 38 40
f 37 40 39
f 39 40 42
f 39 42 41
f 41 42 44
f 41 44 43
f 43 44 46
f 43 46 45
f 45 46 48
f 45 48 47
f 47 48 50
f 47 50 49
f 49 50 52
f 49 52 51
f 51 52 54
f 51 54 53
f 53 54 56
f 53 56 55
f 55 56 58
f 55 58 57
f 57 58 60
f 57 60 59
f 59 60 62
f 59 62 61
f 61 62 64
f 61 64 63
f 63 64 66
f 63 66 65
f 65 66 68
f 65 68 67
f 67 68 70
f 67 70 69
f 69 70 72
f 69 72 71
f 71 72 74
f 71 74 73
f 73 74 76
f 73 76 75
f 75 76 78
f 75 78 77
f 77 78 80
f 77 80 79
f 79 80 82
f 79 82 81
f 81 82 84
f 81 84 83
f 83 84 86
f 83 86 85
f 85 86 88
f 85 88 87
f 87 88 90
f 87 90 89
f 89 90 92
f 89 92 91
f 91 92 94
f 91 94 93
f 93 94 96
f 93 96 95
f 95 96 98
f 95 98 97
f 97 98 100
f 97 100 99
f 99 100 102
f 99 102 101
f 725 726 104
f 725 104 103
f 664 719 724
f 664 724 307
f 719 720 723
f 719 723 724
f 105 106 732
f 105 732 733
f 107 108 110
f 107 110 109
f 109 110 112
f 109 112 111
f 111 112 114
f 111 114 113
f 113 114 116
f 113 116 115
f 115 116 118
f 115 118 117
f 117 118 120
f 117 120 119
f 119 120 122
f 119 122 121
f 121 122 124
f 121 124 123
f 123 124 126
f 123 126 125
f 125 126 128
f 125 128 127
f 127 128 130
f 127 130 129
f 129 130 132
f 129 132 131
f 131 132 134
f 131 134 133
f 133 134 136
f 133 136 135
f 135 136 138
f 135 138 137
f 137 138 140
f 137 140 139
f 139 140 142
f 139 142 141
f 141 142 144
f 141 144 143
f 143 144 146
f 143 146 145
f 145 146 148
f 145 148 147
f 147 148 150
f 147 150 149
f 149 150 152
f 149 152 151
f 151 152 154
f 151 154 153
f 153 154 156
f 153 156 155
f 155 156 158
f 155 158 157
f 157 158 160
f 157 160 159
f 159 160 162
f 159 162 161
f 161 162 164
f 161 164 163
f 163 164 166
f 163 166 165
f 165 166 168
f 165 168 167
f 167 168 170
f 167 170 169
f 169 170 172
f 169 172 171
f 171 172 174
f 171 174 173
f 173 174 176
f 173 176 175
f 175 176 178
f 175 178 177
f 177 178 180
f 177 180 179
f 179 180 182
f 179 182 181
f 181 182 184
f 181 184 183
f 183 184 186
f 183 186 185
f 185 186 188
f 185 188 187
f 187 188 190
f 187 190 189
f 189 190 192
f 189 192 191
f 191 192 194
f 191 194 193
f 193 194 196
f 193 196 195
f 195 196 198
f 195 198 197
f 197 198 200
f 197 200 199
f 199 200 202
f 199 202 201
f 201 202 204
f 201 204 203
f 203 204 2
f 203 2 1
f 205 206 207
f 205 207 208
f 208 207 209
f 208 209 210
f 210 209 211
f 210 211 212
f 212 211 213
f 212 213 214
f 214 213 215
f 214 215 216
f 216 215 217
f 216 217 218
f 218 217 219
f 218 219 220
f 220 219 221
f 220 221 222
f 222 221 223
f 222 223 224
f 224 223 225
f 224 225 226
f 226 225 227
f 226 227 228
f 228 227 229
f 228 229 230
f 230 229 231
f 230 231 232
f 232 231 233
f 232 233 234
f 234 233 235
f 234 235 236
f 236 235 237
f 236 237 238
f 238 237 239
f 238 239 240
f 240 239 241
f 240 241 242
f 242 241 243
f 242 243 244
f 244 243 245
f 244 245 246
f 246 245 247
f 246 247 248
f 248 247 249
f 248 249 250
f 250 249 251
f 250 251 252
f 252 251 253
f 252 253 254
f 254 253 255
f 254 255 256
f 256 255 257
f 256 257 258
f 258 257 259
f 258 259 260
f 260 259 261
f 260 261 262
f 262 261 263
f 262 263 264
f 264 263 265
f 264 265 266
f 266 265 267
f 266 267 268
f 268 267 269
f 268 269 270
f 270 269 271
f 270 271 272
f 272 271 273
f 272 273 274
f 274 273 275
f 274 275 276
f 276 275 277
f 276 277 278
f 278 277 279
f 278 279 280
f 280 279 281
f 280 281 282
f 282 281 283
f 282 283 284
f 284 283 285
f 284 285 286
f 286 285 287
f 286 287 288
f 288 287 289
f 288 289 290
f 290 289 291
f 290 291 292
f 292 291 293
f 292 293 294
f 294 293 295
f 294 295 296
f 296 295 297
f 296 297 298
f 298 297 299
f 298 299 300
f 300 299 301
f 300 301 302
f 302 301 303
f 302 303 304
f 737 738 306
f 737 306 305
f 307 308 734
f 307 734 735
f 310 309 311
f 310 311 312
f 312 311 313
f 312 313 314
f 314 313 315
f 314 315 316
f 316 315 317
f 316 317 318
f 318 317 319
f 318 319 320
f 320 319 321
f 320 321 322
f 322 321 323
f 322 323 324
f 324 323 325
f 324 325 326
f 326 325 327
f 326 327 328
f 328 327 329
f 328 329 330
f 330 329 331
f 330 331 332
f 332 331 333
f 332 333 334
f 334 333 335
f 334 335 336
f 336 335 337
f 336 337 338
f 338 337 339
f 338 339 340
f 340 339 341
f 340 341 342
f 342 341 343
f 342 343 344
f 344 343 345
f 344 345 346
f 346 345 347
f 346 347 348
f 348 347 349
f 348 349 350
f 350 349 351
f 350 351 352
f 352 351 353
f 352 353 354
f 354 353 355
f 354 355 356
f 356 355 357
f 356 357 358
f 358 357 359
f 358 359 360
f 360 359 361
f 360 361 362
f 362 361 363
f 362 363 364
f 364 363 365
f 364 365 366
f 366 365 367
f 366 367 368
f 368 367 369
f 368 369 370
f 370 369 371
f 370 371 372
f 372 371 373
f 372 373 374
f 374 373 375
f 374 375 376
f 376 375 377
f 376 377 378
f 378 377 379
f 378 379 380
f 380 379 381
f 380 381 382
f 382 381 383
f 382 383 384
f 384 383 385
f 384 385 386
f 386 385 387
f 386 387 388
f 388 387 389
f 388 389 390
f 390 389 391
f 390 391 392
f 392 391 393
f 392 393 394
f 394 393 395
f 394 395 396
f 396 395 397
f 396 397 398
f 398 397 399
f 398 399 400
f 400 399 401
f 400 401 402
f 402 401 403
f 402 403 404
f 404 403 405
f 404 405 406
f 406 405 407
f 406 407 408
f 207 206 3
f 207 3 5
f 207 5 7
f 207 7 209
f 209 7 9
f 209 9 211
f 211 9 11
f 211 11 213
f 213 11 13
f 213 13 215
f 215 13 15
f 215 15 217
f 217 15 17
f 217 17 219
f 219 17 19
f 219 19 221
f 221 19 21
f 221 21 223
f 223 21 23
f 223 23 225
f 225 23 25
f 225 25 227
f 227 25 27
f 227 27 229
f 229 27 29
f 229 29 231
f 231 29 31
f 231 31 233
f 233 31 33
f 233 33 235
f 235 33 35
f 235 35 237
f 237 35 37
f 237 37 239
f 239 37 39
f 239 39 241
f 241 39 41
f 241 41 243
f 243 41 43
f 243 43 245
f 245 43 45
f 245 45 247
f 247 45 47
f 247 47 249
f 249 47 49
f 249 49 251
f 251 49 51
f 251 51 253
f 253 51 53
f 253 53 255
f 255 53 55
f 255 55 257
f 257 55 57
f 257 57 259
f 259 57 59
f 259 59 261
f 261 59 61
f 261 61 263
f 263 61 63
f 263 63 265
f 265 63 65
f 265 65 267
f 267 65 67
f 267 67 269
f 269 67 69
f 269 69 271
f 271 69 71
f 271 71 273
f 273 71 73
f 273 73 275
f 275 73 75
f 275 75 277
f 277 75 77
f 277 77 279
f 279 77 79
f 279 79 281
f 281 79 81
f 281 81 283
f 283 81 83
f 283 83 285
f 285 83 85
f 285 85 287
f 287 85 87
f 287 87 289
f 289 87 89
f 289 89 291
f 291 89 91
f 291 91 293
f 293 91 93
f 293 93 295
f 295 93 95
f 295 95 297
f 297 95 97
f 297 97 299
f 299 97 99
f 299 99 301
f 301 99 101
f 301 101 303
f 738 725 103
f 738 103 306
f 733 734 308
f 733 308 105
f 309 107 109
f 309 109 311
f 311 109 111
f 311 111 313
f 313 111 113
f 313 113 315
f 315 113 115
f 315 115 317
f 317 115 117
f 317 117 319
f 319 117 119
f 319 119 321
f 321 119 121
f 321 121 323
f 323 121 123
f 323 123 325
f 325 123 125
f 325 125 327
f 327 125 127
f 327 127 329
f 329 127 129
f 329 129 331
f 331 129 131
f 331 131 333
f 333 131 133
f 333 133 335
f 335 133 135
f 335 135 337
f 337 135 137
f 337 137 339
f 339 137 139
f 339 139 341
f 341 139 141
f 341 141 343
f 343 141 143
f 343 143 345
f 345 143 145
f 345 145 347
f 347 145 147
f 347 147 349
f 349 147 149
f 349 149 351
f 351 149 151
f 351 151 353
f 353 151 153
f 353 153 355
f 355 153 155
f 355 155 357
f 357 155 157
f 357 157 359
f 359 157 159
f 359 159 361
f 361 159 161
f 361 161 363
f 363 161 163
f 363 163 365
f 365 163 165
f 365 165 367
f 367 165 167
f 367 167 369
f 369 167 169
f 369 169 371
f 371 169 171
f 371 171 373
f 373 171 173
f 373 173 375
f 375 173 175
f 375 175 377
f 377 175 177
f 377 177 379
f 379 177 179
f 379 179 381
f 381 179 181
f 381 181 383
f 383 181 183
f 383 183 385
f 385 183 185
f 385 185 387
f 387 185 187
f 387 187 389
f 389 187 189
f 389 189 391
f 391 189 191
f 391 191 393
f 393 191 193
f 393 193 395
f 395 193 195
f 395 195 397
f 397 195 197
f 397 197 399
f 399 197 199
f 399 199 401
f 401 199 201
f 401 201 403
f 403 201 203
f 403 203 405
f 405 203 1
f 405 1 407
f 664 736 737
f 664 737 305
f 665 666 302
f 665 302 304
f 666 667 300
f 666 300 302
f 667 668 298
f 667 298 300
f 668 669 296
f 668 296 298
f 669 670 294
f 669 294 296
f 670 671 292
f 670 292 294
f 671 672 290
f 671 290 292
f 672 673 288
f 672 288 290
f 673 674 286
f 673 286 288
f 674 675 284
f 674 284 286
f 675 676 282
f 675 282 284
f 676 677 280
f 676 280 282
f 677 678 278
f 677 278 280
f 678 679 276
f 678 276 278
f 679 680 274
f 679 274 276
f 680 681 272
f 680 272 274
f 681 682 270
f 681 270 272
f 682 683 268
f 682 268 270
f 683 684 266
f 683 266 268
f 684 685 264
f 684 264 266
f 685 686 262
f 685 262 264
f 686 687 260
f 686 260 262
f 687 688 258
f 687 258 260
f 688 689 256
f 688 256 258
f 689 690 254
f 689 254 256
f 690 691 252
f 690 252 254
f 691 692 250
f 691 250 252
f 692 693 248
f 692 248 250
f 693 694 246
f 693 246 248
f 694 695 244
f 694 244 246
f 695 696 242
f 695 242 244
f 696 697 240
f 696 240 242
f 697 698 238
f 697 238 240
f 698 699 236
f 698 236 238
f 699 700 234
f 699 234 236
f 700 701 232
f 700 232 234
f 701 702 230
f 701 230 232
f 702 703 228
f 702 228 230
f 703 704 226
f 703 226 228
f 704 705 224
f 704 224 226
f 705 706 222
f 705 222 224
f 706 707 220
f 706 220 222
f 707 708 218
f 707 218 220
f 708 709 216
f 708 216 218
f 709 710 214
f 709 214 216
f 710 711 212
f 710 212 214
f 711 712 210
f 711 210 212
f 712 713 208
f 712 208 210
f 713 714 205
f 713 205 208
f 717 409 4
f 717 4 716
f 512 723 720
f 512 720 613
f 409 410 412
f 409 412 411
f 411 412 414
f 411 414 413
f 413 414 416
f 413 416 415
f 415 416 418
f 415 418 417
f 417 418 420
f 417 420 419
f 419 420 422
f 419 422 421
f 421 422 424
f 421 424 423
f 423 424 426
f 423 426 425
f 425 426 428
f 425 428 427
f 427 428 430
f 427 430 429
f 429 430 432
f 429 432 431
f 431 432 434
f 431 434 433
f 433 434 436
f 433 436 435
f 435 436 438
f 435 438 437
f 437 438 440
f 437 440 439
f 439 440 442
f 439 442 441
f 441 442 444
f 441 444 443
f 443 444 446
f 443 446 445
f 445 446 448
f 445 448 447
f 447 448 450
f 447 450 449
f 449 450 452
f 449 452 451
f 451 452 454
f 451 454 453
f 453 454 456
f 453 456 455
f 455 456 458
f 455 458 457
f 457 458 460
f 457 460 459
f 459 460 462
f 459 462 461
f 461 462 464
f 461 464 463
f 463 464 466
f 463 466 465
f 465 466 468
f 465 468 467
f 467 468 470
f 467 470 469
f 469 470 472
f 469 472 471
f 471 472 474
f 471 474 473
f 473 474 476
f 473 476 475
f 475 476 478
f 475 478 477
f 477 478 480
f 477 480 479
f 479 480 482
f 479 482 481
f 481 482 484
f 481 484 483
f 483 484 486
f 483 486 485
f 485 486 488
f 485 488 487
f 487 488 490
f 487 490 489
f 489 490 492
f 489 492 491
f 491 492 494
f 491 494 493
f 493 494 496
f 493 496 495
f 495 496 498
f 495 498 497
f 497 498 500
f 497 500 499
f 499 500 502
f 499 502 501
f 501 502 504
f 501 504 503
f 503 504 506
f 503 506 505
f 505 506 508
f 505 508 507
f 727 728 509
f 727 509 510
f 511 512 730
f 511 730 731
f 513 514 516
f 513 516 515
f 515 516 518
f 515 518 517
f 517 518 520
f 517 520 519
f 519 520 522
f 519 522 521
f 521 522 524
f 521 524 523
f 523 524 526
f 523 526 525
f 525 526 528
f 525 528 527
f 527 528 530
f 527 530 529
f 529 530 532
f 529 532 531
f 531 532 534
f 531 534 533
f 533 534 536
f 533 536 535
f 535 536 538
f 535 538 537
f 537 538 540
f 537 540 539
f 539 540 542
f 539 542 541
f 541 542 544
f 541 544 543
f 543 544 546
f 543 546 545
f 545 546 548
f 545 548 547
f 547 548 550
f 547 550 549
f 549 550 552
f 549 552 551
f 551 552 554
f 551 554 553
f 553 554 556
f 553 556 555
f 555 556 558
f 555 558 557
f 557 558 560
f 557 560 559
f 559 560 562
f 559 562 561
f 561 562 564
f 561 564 563
f 563 564 566
f 563 566 565
f 565 566 568
f 565 568 567
f 567 568 570
f 567 570 569
f 569 570 572
f 569 572 571
f 571 572 574
f 571 574 573
f 573 574 576
f 573 576 575
f 575 576 578
f 575 578 577
f 577 578 580
f 577 580 579
f 579 580 582
f 579 582 581
f 581 582 584
f 581 584 583
f 583 584 586
f 583 586 585
f 585 586 588
f 585 588 587
f 587 588 590
f 587 590 589
f 589 590 592
f 589 592 591
f 591 592 594
f 591 594 593
f 593 594 596
f 593 596 595
f 595 596 598
f 595 598 597
f 597 598 600
f 597 600 599
f 599 600 602
f 599 602 601
f 601 602 604
f 601 604 603
f 603 604 606
f 603 606 605
f 605 606 608
f 605 608 607
f 607 608 610
f 607 610 609
f 609 610 611
f 609 611 612
f 4 409 411
f 4 411 6
f 6 411 413
f 6 413 8
f 8 413 415
f 8 415 10
f 10 415 417
f 10 417 12
f 12 417 419
f 12 419 14
f 14 419 421
f 14 421 16
f 16 421 423
f 16 423 18
f 18 423 425
f 18 425 20
f 20 425 427
f 20 427 22
f 22 427 429
f 22 429 24
f 24 429 431
f 24 431 26
f 26 431 433
f 26 433 28
f 28 433 435
f 28 435 30
f 30 435 437
f 30 437 32
f 32 437 439
f 32 439 34
f 34 439 441
f 34 441 36
f 36 441 443
f 36 443 38
f 38 443 445
f 38 445 40
f 40 445 447
f 40 447 42
f 42 447 449
f 42 449 44
f 44 449 451
f 44 451 46
f 46 451 453
f 46 453 48
f 48 453 455
f 48 455 50
f 50 455 457
f 50 457 52
f 52 457 459
f 52 459 54
f 54 459 461
f 54 461 56
f 56 461 463
f 56 463 58
f 58 463 465
f 58 465 60
f 60 465 467
f 60 467 62
f 62 467 469
f 62 469 64
f 64 469 471
f 64 471 66
f 66 471 473
f 66 473 68
f 68 473 475
f 68 475 70
f 70 475 477
f 70 477 72
f 72 477 479
f 72 479 74
f 74 479 481
f 74 481 76
f 76 481 483
f 76 483 78
f 78 483 485
f 78 485 80
f 80 485 487
f 80 487 82
f 82 487 489
f 82 489 84
f 84 489 491
f 84 491 86
f 86 491 493
f 86 493 88
f 88 493 495
f 88 495 90
f 90 495 497
f 90 497 92
f 92 497 499
f 92 499 94
f 94 499 501
f 94 501 96
f 96 501 503
f 96 503 98
f 98 503 505
f 98 505 100
f 100 505 507
f 100 507 102
f 726 727 510
f 726 510 104
f 106 511 731
f 106 731 732
f 108 513 515
f 108 515 110
f 110 515 517
f 110 517 112
f 112 517 519
f 112 519 114
f 114 519 521
f 114 521 116
f 116 521 523
f 116 523 118
f 118 523 525
f 118 525 120
f 120 525 527
f 120 527 122
f 122 527 529
f 122 529 124
f 124 529 531
f 124 531 126
f 126 531 533
f 126 533 128
f 128 533 535
f 128 535 130
f 130 535 537
f 130 537 132
f 132 537 539
f 132 539 134
f 134 539 541
f 134 541 136
f 136 541 543
f 136 543 138
f 138 543 545
f 138 545 140
f 140 545 547
f 140 547 142
f 142 547 549
f 142 549 144
f 144 549 551
f 144 551 146
f 146 551 553
f 146 553 148
f 148 553 555
f 148 555 150
f 150 555 557
f 150 557 152
f 152 557 559
f 152 559 154
f 154 559 561
f 154 561 156
f 156 561 563
f 156 563 158
f 158 563 565
f 158 565 160
f 160 565 567
f 160 567 162
f 162 567 569
f 162 569 164
f 164 569 571
f 164 571 166
f 166 571 573
f 166 573 168
f 168 573 575
f 168 575 170
f 170 575 577
f 170 577 172
f 172 577 579
f 172 579 174
f 174 579 581
f 174 581 176
f 176 581 583
f 176 583 178
f 178 583 585
f 178 585 180
f 180 585 587
f 180 587 182
f 182 587 589
f 182 589 184
f 184 589 591
f 184 591 186
f 186 591 593
f 186 593 188
f 188 593 595
f 188 595 190
f 190 595 597
f 190 597 192
f 192 597 599
f 192 599 194
f 194 599 601
f 194 601 196
f 196 601 603
f 196 603 198
f 198 603 605
f 198 605 200
f 200 605 607
f 200 607 202
f 202 607 609
f 202 609 204
f 204 609 612
f 204 612 2
f 729 730 512
f 729 512 613
f 516 514 614
f 516 614 615
f 518 516 615
f 518 615 616
f 520 518 616
f 520 616 617
f 522 520 617
f 522 617 618
f 524 522 618
f 524 618 619
f 526 524 619
f 526 619 620
f 528 526 620
f 528 620 621
f 530 528 621
f 530 621 622
f 532 530 622
f 532 622 623
f 534 532 623
f 534 623 624
f 536 534 624
f 536 624 625
f 538 536 625
f 538 625 626
f 540 538 626
f 540 626 627
f 542 540 627
f 542 627 628
f 544 542 628
f 544 628 629
f 546 544 629
f 546 629 630
f 548 546 630
f 548 630 631
f 550 548 631
f 550 631 632
f 552 550 632
f 552 632 633
f 554 552 633
f 554 633 634
f 556 554 634
f 556 634 635
f 558 556 635
f 558 635 636
f 560 558 636
f 560 636 637
f 562 560 637
f 562 637 638
f 564 562 638
f 564 638 639
f 566 564 639
f 566 639 640
f 568 566 640
f 568 640 641
f 570 568 641
f 570 641 642
f 572 570 642
f 572 642 643
f 574 572 643
f 574 643 644
f 576 574 644
f 576 644 645
f 578 576 645
f 578 645 646
f 580 578 646
f 580 646 647
f 582 580 647
f 582 647 648
f 584 582 648
f 584 648 649
f 586 584 649
f 586 649 650
f 588 586 650
f 588 650 651
f 590 588 651
f 590 651 652
f 592 590 652
f 592 652 653
f 594 592 653
f 594 653 654
f 596 594 654
f 596 654 655
f 598 596 655
f 598 655 656
f 600 598 656
f 600 656 657
f 602 600 657
f 602 657 658
f 604 602 658
f 604 658 659
f 606 604 659
f 606 659 660
f 608 606 660
f 608 660 661
f 610 608 661
f 610 661 662
f 662 663 611
f 662 611 610
f 728 729 613
f 728 613 509
f 615 614 508
f 615 508 506
f 616 615 506
f 616 506 504
f 617 616 504
f 617 504 502
f 618 617 502
f 618 502 500
f 619 618 500
f 619 500 498
f 620 619 498
f 620 498 496
f 621 620 496
f 621 496 494
f 622 621 494
f 622 494 492
f 623 622 492
f 623 492 490
f 624 623 490
f 624 490 488
f 625 624 488
f 625 488 486
f 626 625 486
f 626 486 484
f 627 626 484
f 627 484 482
f 628 627 482
f 628 482 480
f 629 628 480
f 629 480 478
f 630 629 478
f 630 478 476
f 631 630 476
f 631 476 474
f 632 631 474
f 632 474 472
f 633 632 472
f 633 472 470
f 634 633 470
f 634 470 468
f 635 634 468
f 635 468 466
f 636 635 466
f 636 466 464
f 637 636 464
f 637 464 462
f 638 637 462
f 638 462 460
f 639 638 460
f 639 460 458
f 640 639 458
f 640 458 456
f 641 640 456
f 641 456 454
f 642 641 454
f 642 454 452
f 643 642 452
f 643 452 450
f 644 643 450
f 644 450 448
f 645 644 448
f 645 448 446
f 646 645 446
f 646 446 444
f 647 646 444
f 647 444 442
f 648 647 442
f 648 442 440
f 649 648 440
f 649 440 438
f 650 649 438
f 650 438 436
f 651 650 436
f 651 436 434
f 652 651 434
f 652 434 432
f 653 652 432
f 653 432 430
f 654 653 430
f 654 430 428
f 655 654 428
f 655 428 426
f 656 655 426
f 656 426 424
f 657 656 424
f 657 424 422
f 658 657 422
f 658 422 420
f 659 658 420
f 659 420 418
f 660 659 418
f 660 418 416
f 661 660 416
f 661 416 414
f 662 661 414
f 662 414 412
f 412 410 663
f 412 663 662
f 735 736 664
f 735 664 307
f 312 666 665
f 312 665 310
f 314 667 666
f 314 666 312
f 316 668 667
f 316 667 314
f 318 669 668
f 318 668 316
f 320 670 669
f 320 669 318
f 322 671 670
f 322 670 320
f 324 672 671
f 324 671 322
f 326 673 672
f 326 672 324
f 328 674 673
f 328 673 326
f 330 675 674
f 330 674 328
f 332 676 675
f 332 675 330
f 334 677 676
f 334 676 332
f 336 678 677
f 336 677 334
f 338 679 678
f 338 678 336
f 340 680 679
f 340 679 338
f 342 681 680
f 342 680 340
f 344 682 681
f 344 681 342
f 346 683 682
f 346 682 344
f 348 684 683
f 348 683 346
f 350 685 684
f 350 684 348
f 352 686 685
f 352 685 350
f 354 687 686
f 354 686 352
f 356 688 687
f 356 687 354
f 358 689 688
f 358 688 356
f 360 690 689
f 360 689 358
f 362 691 690
f 362 690 360
f 364 692 691
f 364 691 362
f 366 693 692
f 366 692 364
f 368 694 693
f 368 693 366
f 370 695 694
f 370 694 368
f 372 696 695
f 372 695 370
f 374 697 696
f 374 696 372
f 376 698 697
f 376 697 374
f 378 699 698
f 378 698 376
f 380 700 699
f 380 699 378
f 382 701 700
f 382 700 380
f 384 702 701
f 384 701 382
f 386 703 702
f 386 702 384
f 388 704 703
f 388 703 386
f 390 705 704
f 390 704 388
f 392 706 705
f 392 705 390
f 394 707 706
f 394 706 392
f 396 708 707
f 396 707 394
f 398 709 708
f 398 708 396
f 400 710 709
f 400 709 398
f 402 711 710
f 402 710 400
f 404 712 711
f 404 711 402
f 406 713 712
f 406 712 404
f 406 408 714
f 406 714 713
f 407 718 714
f 407 714 408
f 2 716 715
f 2 715 1
f 612 717 716
f 612 716 2
f 663 717 612
f 663 612 611
f 410 409 717
f 410 717 663
f 1 715 718
f 1 718 407
f 206 718 715
f 206 715 3
f 306 721 719
f 306 719 664
f 306 664 305
f 721 722 720
f 721 720 719
f 613 720 722
f 613 722 509
f 103 721 306
f 104 722 721
f 104 721 103
f 509 722 104
f 509 104 510
f 512 511 106
f 512 106 723
f 724 723 106
f 724 106 105
f 307 724 105
f 307 105 308
f 781 782 754
f 781 754 755
f 782 783 753
f 782 753 754
f 783 784 766
f 783 766 753
f 784 785 765
f 784 765 766
f 785 786 764
f 785 764 765
f 763 764 786
f 763 786 787
f 762 763 787
f 762 787 788
f 761 762 788
f 761 788 789
f 789 790 760
f 789 760 761
f 759 760 790
f 759 790 791
f 791 792 758
f 791 758 759
f 757 758 792
f 757 792 793
f 793 794 756
f 793 756 757
f 794 781 755
f 794 755 756
f 767 768 796
f 767 796 797
f 768 769 795
f 768 795 796
f 769 770 808
f 769 808 795
f 770 771 807
f 770 807 808
f 771 772 806
f 771 806 807
f 805 806 772
f 805 772 773
f 804 805 773
f 804 773 774
f 803 804 774
f 803 774 775
f 775 776 802
f 775 802 803
f 801 802 776
f 801 776 777
f 777 778 800
f 777 800 801
f 799 800 778
f 799 778 779
f 779 780 798
f 779 798 799
f 780 767 797
f 780 797 798
f 754 753 823
f 754 823 824
f 755 754 824
f 755 824 825
f 756 755 825
f 756 825 826
f 757 756 826
f 757 826 827
f 827 828 758
f 827 758 757
f 759 758 828
f 759 828 829
f 829 830 760
f 829 760 759
f 761 760 830
f 761 830 831
f 831 832 762
f 831 762 761
f 832 833 763
f 832 763 762
f 833 834 764
f 833 764 763
f 765 764 834
f 765 834 835
f 766 765 835
f 766 835 836
f 753 766 836
f 753 836 823
f 809 810 768
f 809 768 767
f 810 811 769
f 810 769 768
f 811 812 770
f 811 770 769
f 812 813 771
f 812 771 770
f 813 814 772
f 813 772 771
f 773 772 814
f 773 814 815
f 774 773 815
f 774 815 816
f 775 774 816
f 775 816 817
f 817 818 776
f 817 776 775
f 777 776 818
f 777 818 819
f 819 820 778
f 819 778 777
f 779 778 820
f 779 820 821
f 821 822 780
f 821 780 779
f 822 809 767
f 822 767 780
f 739 740 782
f 739 782 781
f 740 741 783
f 740 783 782
f 741 742 784
f 741 784 783
f 742 743 785
f 742 785 784
f 743 744 786
f 743 786 785
f 787 786 744
f 787 744 745
f 788 787 745
f 788 745 746
f 789 788 746
f 789 746 747
f 747 748 790
f 747 790 789
f 791 790 748
f 791 748 749
f 749 750 792
f 749 792 791
f 793 792 750
f 793 750 751
f 751 752 794
f 751 794 793
f 752 739 781
f 752 781 794
f 796 795 741
f 796 741 740
f 797 796 740
f 797 740 739
f 798 797 739
f 798 739 752
f 799 798 752
f 799 752 751
f 751 750 800
f 751 800 799
f 801 800 750
f 801 750 749
f 749 748 802
f 749 802 801
f 803 802 748
f 803 748 747
f 747 746 804
f 747 804 803
f 746 745 805
f 746 805 804
f 745 744 806
f 745 806 805
f 807 806 744
f 807 744 743
f 808 807 743
f 808 743 742
f 795 808 742
f 795 742 741
f 101 102 810
f 101 810 809
f 102 507 811
f 102 811 810
f 507 508 812
f 507 812 811
f 614 813 812
f 614 812 508
f 514 814 813
f 514 813 614
f 815 814 514
f 815 514 513
f 816 815 513
f 816 513 108
f 817 816 108
f 817 108 107
f 309 818 817
f 309 817 107
f 819 818 309
f 819 309 310
f 310 665 820
f 310 820 819
f 821 820 665
f 821 665 304
f 304 303 822
f 304 822 821
f 303 101 809
f 303 809 822
f 824 823 727
f 824 727 726
f 825 824 726
f 825 726 725
f 826 825 725
f 826 725 738
f 827 826 738
f 827 738 737
f 737 736 828
f 737 828 827
f 829 828 736
f 829 736 735
f 735 734 830
f 735 830 829
f 831 830 734
f 831 734 733
f 733 732 832
f 733 832 831
f 732 731 833
f 732 833 832
f 731 730 834
f 731 834 833
f 835 834 730
f 835 730 729
f 836 835 729
f 836 729 728
f 823 836 728
f 823 728 727
